<svg xmlns="http://www.w3.org/2000/svg" xmlns:xlink="http://www.w3.org/1999/xlink" viewBox="0 0 64 89" version="1.1" xml:space="preserve" x="0px" y="0px" width="64px" height="89px" class="style0"><style>.style0{background-color:	#ffffff00;}.style1{fill:	#000000;}</style><g><g><path d="M 27.1 0.4 C 28.3 0.9 29.3 1.7 30.3 2.5 C 31.8 3.7 33.1 5 34.3 6.5 C 34.7 7.3 35.4 8.3 34.9 9.2 C 34.5 9.9 34.5 10.7 34.6 11.5 C 34.8 12.2 35.5 12.6 35.5 13.4 C 35.7 14.9 35.8 16.6 35.6 18.1 C 35.5 18.7 35.7 19.2 36 19.6 C 37.2 19.6 38.3 19.1 39.5 19.1 C 40.7 19.3 41.4 20.3 42.2 21.2 C 43 22.4 42.4 24 43.3 25.2 C 43.7 25.4 44.3 25 44.8 25 C 45.9 25.2 47 25.4 48 25.7 C 48.6 25.9 48.7 26.5 49 26.9 C 50.3 29.4 51.7 31.8 53.2 34.3 C 54.5 36.7 56.2 38.9 57.9 41.2 L 54.1 49.6 C 52.7 50 51.3 50.2 49.8 50.6 C 47 51.2 44.2 52.1 41.4 52.7 C 40.4 52.8 39.4 53.2 38.5 52.9 C 37.9 52.6 37.3 52.9 36.8 53.2 L 37.2 53.4 L 36.4 53.6 L 36.6 53.2 L 36.1 53.3 L 36.2 53.8 L 35.6 53.3 C 35.4 53.6 35.4 53.8 35.2 54 C 34.9 54.2 34.5 54.3 34.1 54.4 C 34.2 53.4 34.3 52.4 33.9 51.4 C 33.2 49.4 33.7 47.2 33.6 45.1 C 33.5 43 33.9 40.9 33.9 38.8 C 34 36.2 35.7 34.1 37.8 32.8 C 38.3 32.5 38.9 32.5 39.5 32.2 C 40.5 31.9 41.5 31.3 42.2 30.6 C 41.7 30.8 41.2 31.1 40.6 31.3 C 41 30.7 41.4 30.1 41.8 29.4 C 40.3 29.6 39.2 30.6 38.2 31.5 C 38.5 30.4 39.3 29.3 40.5 29.1 C 40.9 29 41.3 29.1 41.6 28.8 C 42 27.6 42.5 26.3 42.1 25.1 C 41.9 24.1 42 23.1 41.9 22.2 C 41.7 23 41.7 23.9 41.5 24.8 C 41 26.2 40.3 27.5 39.5 28.9 C 39 29.6 38.6 30.6 37.7 31.1 C 37.3 31.4 36.8 31.8 36.4 32.1 C 35.8 31 35.3 29.8 35 28.6 C 34.9 27.8 34.3 27 34.6 26.2 C 34.7 25.3 36.2 25.8 35.9 24.6 C 36 23.2 34.8 22.1 34.8 20.7 L 34.3 20.3 C 34.5 20.3 34.8 20.4 35 20.4 L 35.1 20.2 C 34.7 20 34.3 19.9 33.9 19.6 C 33.8 19 33.8 18.4 33.4 17.9 C 32.7 17.1 32.9 16.1 32.5 15.1 C 32.1 14.1 31.6 13.1 31.3 12 C 30.8 10.8 30 9.6 28.6 9.3 C 28 9.1 27.3 9.3 26.8 9.8 C 26.1 10.4 25.3 10.9 24.7 11.5 C 23.9 12.3 23.8 13.5 23.6 14.5 L 22.8 14.2 C 23.3 15 23.9 15.8 24.5 16.5 C 25.1 17.2 25 18.3 25.2 19.2 C 26.1 20.2 27 21.2 27.6 22.5 C 27.3 22.8 27 23.1 26.7 23.4 C 27.1 24 27.5 24.5 27.8 25.2 C 27.3 25.4 26.8 25.4 26.6 25.9 C 26.4 26.9 26.4 28 25.7 28.7 C 25.9 29.1 26.2 29.4 26.3 29.9 C 26.4 30.4 26.2 31 26.1 31.6 C 26.8 32 27.6 32.4 28.3 32.9 C 28.7 33.4 28.7 34.1 28.9 34.6 C 28.3 34.9 27.7 35 27.1 35.2 C 27 35.9 26.8 36.6 27.1 37.2 C 27.4 38.1 27.5 39.1 28 39.9 C 29.3 42.2 30.6 44.5 31.6 46.9 L 30.9 46.7 C 31.1 47.1 31.3 47.6 31.6 48 C 31.6 47.7 31.6 47.4 31.6 47.1 C 32.3 48.2 32.7 49.6 33 50.9 C 33.2 51.4 32.8 51.9 32.4 52.3 L 32 51.9 C 32.3 52.8 32.6 53.7 32.7 54.7 L 31.6 54.8 L 32 54.3 C 31.6 54.5 31.1 54.7 30.7 54.9 C 29.8 55.2 28.9 55.1 28 55.4 C 27.4 55.6 26.8 55.7 26.2 55.8 C 26.6 55.1 26.8 54.3 26.9 53.5 C 27.3 53.5 27.7 53.5 28 53.5 L 28.2 53.9 C 29.4 53.7 30.8 53.6 31.6 52.6 C 29.9 52.1 29 50.6 27.9 49.4 C 26.9 48.1 25.9 46.8 25 45.5 C 24.7 45.1 24.6 44.7 24.5 44.2 C 25.4 45.1 26 46.1 26.9 47 C 27.5 47.6 28.1 48.3 28.6 48.9 C 28.9 48.4 29.2 48 29.5 47.5 C 29.1 47.6 28.7 47.6 28.3 47.7 C 28.6 47.1 28.9 46.5 29.1 46 L 28.1 45.5 C 28.2 44.7 28.2 44 28.1 43.2 C 28.3 43.1 28.5 43 28.7 42.9 C 28.2 42.7 27.7 42.7 27.1 42.6 C 27.3 42.2 27.4 41.9 27.5 41.5 C 27 41.4 26.5 41.2 25.9 41.1 C 26.3 42.6 26.5 44 26.8 45.4 C 26.1 44.8 25.6 44.1 25.1 43.3 C 23.9 41.6 23.6 39.6 23.1 37.6 C 22.1 37.6 21.1 37.7 20.3 38.2 C 20.6 37.8 20.9 37.5 21.2 37.2 C 20.3 37.4 19.6 38.4 18.5 37.9 C 17.5 37.4 16.4 36.9 15.8 35.9 C 15.6 35.3 16.2 35 16.6 34.6 C 17.2 34.1 17.6 33.1 18.4 32.8 C 19 32.5 19.7 32.3 20.2 32 C 20.7 31.4 21.3 30.8 21.7 30.1 L 22.3 30.1 C 22.5 29.7 22.8 29.2 23.2 28.8 L 22.6 28.6 C 22.8 28.1 23 27.6 23.1 27.1 L 23.7 27.4 C 23.5 26.5 23.6 25.6 23.8 24.8 C 24.2 25.2 24.6 25.7 24.9 26.1 C 25 25.7 25.2 25.2 25.2 24.7 C 25.2 24.2 24.8 23.8 24.8 23.3 C 24.9 23 25.1 22.7 25.2 22.5 C 24.9 22.3 24.4 22.2 24.2 21.9 C 24.1 21.5 24.3 21.1 24.2 20.8 C 24.2 20.4 23.9 20.1 23.8 19.8 C 23.9 19.6 24 19.3 24.1 19 C 24 18.5 23.6 18 23.6 17.4 C 23.6 17 23.8 16.7 23.9 16.3 C 23.5 16.1 22.9 16.1 22.6 15.6 C 22.4 15.2 22.1 14.8 21.7 14.5 C 20.9 14 20.3 13.1 19.8 12.2 C 20.3 12.1 20.7 11.9 21.1 11.7 C 21 11.4 20.8 11.2 20.6 11.2 C 19.8 11 19 10.9 18.3 10.7 C 17.1 12 15.8 13.2 15.1 14.8 C 14.8 15.3 15.1 15.8 15 16.2 C 14.4 16.9 13.4 17.1 12.8 17.8 C 12.5 18.5 11.9 19 11.4 19.5 L 10.5 19 C 10.7 18.3 10.9 17.7 11.2 17 L 10.1 17.2 C 9.9 18.2 10.2 19.2 10.7 20 C 9.8 20 9 20.6 8.2 20.9 C 6.9 21.5 5.3 21.7 3.9 21.3 C 2.2 20.6 0.7 19.3 0.2 17.4 C 2.9 17.6 5.9 18.7 8.5 17.3 C 8 17.3 7.4 17.4 6.9 17.5 L 7.2 17.1 L 6.5 17.1 C 7 16.7 7.4 16.2 8 15.9 C 8.8 15.5 9.7 15.9 10.4 16.1 L 10.5 15.7 L 10.8 16.3 C 12.3 15.6 13.6 14.4 14.9 13.3 C 16.2 12.2 17.2 10.7 18.2 9.3 C 16.2 9.6 14.1 10.3 12 10.1 C 13 9.3 14.3 8.8 15.1 7.7 C 15.7 7.7 16.3 8 16.8 7.7 C 17.2 6.9 17.3 5.9 17.5 5.1 L 17.8 5.3 L 17.7 6.6 C 18.2 5.2 18.6 3.8 19.4 2.6 C 19.8 2.8 20.2 3.4 20.8 3.2 C 21.7 2.7 22.6 2 23.6 1.7 C 24.7 1.1 25.9 1 27 1 L 27.1 0.4 ZM 15.8 8.3 C 15.6 8.6 15.4 8.8 15.2 9.1 C 15.7 9 16.3 8.8 16.8 8.6 C 16.5 8.5 16.1 8.4 15.8 8.3 ZM 20.1 10.1 C 20.3 10.3 20.4 10.6 20.6 10.8 L 20.9 10.5 C 20.6 10.4 20.4 10.2 20.1 10.1 ZM 21.4 12.5 L 21.3 13 L 21.8 13.2 C 21.7 12.9 21.6 12.7 21.4 12.5 ZM 25.9 21.4 C 25.7 21.5 25.9 21.7 26.1 21.6 C 26.2 21.5 26 21.2 25.9 21.4 ZM 26.1 21.8 C 25.7 22.5 25.1 23.5 25.8 24.2 C 26 23.8 26.2 23.3 26.3 22.9 C 26.4 22.5 26.1 22.1 26.1 21.8 ZM 7.5 17.1 C 7.8 16.8 8 16.5 8.2 16.2 C 7.9 16.5 7.7 16.8 7.5 17.1 ZM 9.3 16.8 C 9.1 17 9.2 17.1 9.4 17.1 C 9.6 16.9 9.5 16.8 9.3 16.8 ZM 24.7 26.6 C 24.5 26.8 24.8 27.1 25 26.9 C 25.2 26.8 24.9 26.4 24.7 26.6 ZM 41.4 39.1 C 40.9 39.6 40.2 39.8 40 40.5 C 38.5 43.7 36.9 46.9 35 49.8 C 35.6 49.7 36.1 49.3 36.4 48.8 C 37.7 46.7 38.7 44.3 40.2 42.2 C 40.8 41.3 41.6 40.5 42 39.3 L 41.4 39.1 ZM 35.1 43.5 C 34.8 43.7 34.8 44.1 34.8 44.4 C 36.3 43.1 37.6 41.6 38.2 39.7 C 37.2 41 36.4 42.5 35.1 43.5 ZM 42.8 43.1 C 42.4 43.4 42.1 43.8 41.7 44.1 C 41.7 44.8 41.1 45.4 40.5 45.9 C 39.1 47.2 38.2 49 37.2 50.7 L 37.5 50.7 C 38.1 50.3 38.8 49.9 39.2 49.3 C 39.9 48 40.9 46.9 41.7 45.7 C 42.1 45.3 42.1 44.7 42.4 44.2 C 42.7 43.9 43 43.7 43.3 43.5 C 43.2 43.4 43 43.2 42.8 43.1 ZM 19.7 36.1 C 20.6 36.2 21.5 36.1 22.4 36.2 C 22.7 36.2 23 36.2 23.2 36.1 C 22.1 35.8 20.8 35.6 19.7 36.1 ZM 24.5 36.6 C 24.3 36.6 24.1 37 24.4 37 C 24.6 37 24.7 36.7 24.5 36.6 ZM 23.7 36.4 C 23.3 36.5 24 37 24.1 36.7 C 24.1 36.5 23.9 36.4 23.7 36.4 ZM 17.5 35.3 C 17.9 35.1 18.4 34.8 18.7 34.6 C 18.2 34.5 17.8 34.9 17.5 35.3 ZM 21.4 36.6 C 21.2 36.5 21 36.8 21.1 36.9 C 21.3 37 21.6 36.8 21.4 36.6 ZM 26.1 38.7 L 25.9 39.1 C 26.1 39.3 26.4 39.5 26.6 39.7 C 26.5 39.4 26.2 39 26.1 38.7 ZM 34 43 C 33.8 42.9 33.6 43.2 33.8 43.3 C 34 43.4 34.2 43.1 34 43 ZM 26.2 40.3 L 26.6 40.7 C 26.7 40.4 26.8 40.2 27 39.9 C 26.7 40 26.4 40.2 26.2 40.3 ZM 34.7 45.7 C 34.7 46 34.8 46.3 34.9 46.6 C 35.1 46.2 35.2 45.7 35.4 45.3 C 35.2 45.4 34.8 45.4 34.7 45.7 ZM 28.6 45.1 C 28.4 45.2 28.5 45.5 28.7 45.4 C 28.9 45.3 28.7 45 28.6 45.1 ZM 29.9 45.7 C 30 46.2 30 46.7 30.3 47.1 C 30.3 46.6 30.1 46.1 29.9 45.7 ZM 30.6 47.8 C 30.3 47.8 30.5 48.3 30.7 48.2 C 30.9 48.1 30.8 47.8 30.6 47.8 ZM 31.8 48.6 L 31.7 48.7 C 31.6 49.1 32.3 48.7 31.8 48.6 ZM 35 50.7 L 35.3 51 L 35.7 50.5 L 35 50.7 ZM 28.8 49.1 C 29.1 49.2 29.3 49.3 29.6 49.3 C 30.1 49.1 29.8 48.5 29.9 48.1 C 29.4 48.3 29 48.6 28.8 49.1 ZM 28.8 54.7 L 28.6 54.8 C 28.6 55.3 29.3 54.9 28.8 54.7 ZM 16.9 3.9 C 17.1 4 17 4.3 16.8 4.3 C 16.6 4.2 16.7 3.8 16.9 3.9 ZM 60.8 27.3 C 61.8 27.5 62.8 27.7 63.7 28 L 60.5 35.3 C 59.8 34.1 58.9 33.1 58.3 31.8 L 58.8 31.8 C 58.2 30.3 57 29.1 56.3 27.6 C 57.1 27.2 58 27.2 58.9 27.3 C 59.2 27.5 59.3 28 59.5 28.2 C 59.8 28.4 60.1 28.5 60.5 28.5 C 60.2 28.1 59.9 27.7 59.6 27.4 C 60 27.3 60.4 27.3 60.8 27.3 ZM 57.2 28.2 C 57.5 28.4 57.9 28.6 58.3 28.8 C 58.2 28.5 58.2 28.1 57.9 27.9 C 57.6 27.7 57.4 28 57.2 28.2 ZM 59.1 28.4 L 58.9 28.9 L 59.3 29.1 L 59.5 28.6 L 59.1 28.4 ZM 27.1 12.9 L 28.2 13.1 C 28 13.4 27.8 13.6 27.7 13.9 L 27.3 13.7 C 27.2 13.4 27.2 13.2 27.1 12.9 ZM 55.1 26.3 C 55.7 26.4 56.3 26.6 56.8 26.8 C 56.4 26.8 56.1 27 55.7 27 C 55.3 26.9 55.2 26.5 55.1 26.3 ZM 26.6 14.3 C 27 14.4 27.5 14.5 27.9 14.8 C 28.3 15.5 27.7 16.4 27.1 16.9 C 27 16 26.9 15.1 26.6 14.3 ZM 56.5 28.6 C 56.7 28.5 56.8 28.8 56.6 28.9 C 56.5 29 56.3 28.7 56.5 28.6 ZM 12.6 19.3 C 13.6 18.9 14.5 17.8 15.8 17.9 C 15.1 18.8 14 19.2 13.3 20.1 C 13.1 19.9 12.8 19.6 12.6 19.3 ZM 40.1 31.5 C 40.6 31.6 39.9 32 40 31.6 L 40.1 31.5 ZM 13.1 20.4 C 13.6 20.5 14.2 20.5 14.6 20.9 C 14.1 21.4 13.4 21.1 12.9 20.8 L 13.1 20.4 ZM 14.7 25.1 C 14.7 25.5 14.6 25.9 14.5 26.3 C 14.4 25.9 14.5 25.5 14.7 25.1 ZM 14.1 26.3 C 15.5 26.6 17 26.9 18.2 27.8 L 18 28.3 C 17.5 28 17 27.6 16.4 27.3 C 16 27.5 15.5 27.6 15.1 27.5 C 14.4 27.3 13.8 27.5 13.1 27.6 C 13.4 27.1 13.4 26.3 14.1 26.3 ZM 11.8 26.8 C 11.7 26.2 12.4 26.1 12.9 26.1 C 12.6 26.4 12.2 26.7 11.8 26.8 ZM 15.4 28.6 C 15.9 28.4 16.4 28.1 17 28.1 C 16.6 28.5 16 28.7 15.4 28.6 ZM 15.7 30.4 C 16.1 30.4 16.4 30.2 16.7 30.4 C 16.9 30.7 16.9 31 17 31.2 C 16.4 31.2 16 30.9 15.7 30.4 ZM 38.7 59.1 C 43 58.1 47.2 57.1 51.3 55.9 L 40.8 79.8 C 37.6 79.7 34.4 79.4 31.2 79.3 C 30.4 79.3 29.5 79 28.7 78.8 C 29.1 78.7 29.4 78.8 29.8 78.7 C 30.6 78.1 30.7 77 31 76.1 C 31.6 76.1 32.3 76.1 32.9 76.2 C 32.7 75.9 32.5 75.6 32.3 75.3 L 32.9 75 C 32.6 74.9 32.3 74.8 31.9 74.7 C 30.8 72 28.3 70.2 25.7 69.1 C 23.6 68.2 21.4 67 20.4 64.9 C 20.5 66 20.6 67.1 21.3 68 C 22.6 70.2 25 71.4 26.8 73.2 C 27.6 73.9 27.4 74.9 27.4 75.9 C 25.8 74.7 25 72.7 23.4 71.6 C 23.2 72.8 24.4 73.4 24.9 74.2 C 25.8 75.6 26.8 76.8 27.7 78.2 C 26.7 77.4 25.8 76.4 25 75.3 C 24.3 74.5 23.4 73.9 22.8 73 C 22.5 72.3 22.6 71.6 22.5 70.9 C 22.3 70.2 21.9 69.6 21.5 69 C 21.6 70.1 22 71.2 22.2 72.3 C 20.6 70.7 19.3 69.1 17.9 67.4 C 17.1 66.3 16.1 65.4 15.2 64.3 C 16.5 64 17.7 63.7 19 63.6 C 20.2 64.1 21 65 22.1 65.7 C 24.4 67.3 27 68.6 29.3 70.3 C 30.1 70.8 31 71.1 31.8 71.6 C 32.4 71.3 33 71 33.7 71.3 C 33.9 70 33.8 68.7 33.7 67.5 C 33.5 67.8 33.3 68.2 33.1 68.6 L 32.6 68.3 C 33 67.5 33.3 66.7 33.7 65.9 C 33.2 66 32.6 66 32.1 66.1 C 32.5 65.5 32.9 65 33.3 64.4 L 32.4 64.3 C 32.7 63.8 33 63.3 33.3 62.8 L 32.5 62.7 C 32.7 62.1 32.8 61.5 32.7 60.9 L 32.5 61.4 L 32.2 60.6 C 34.3 59.9 36.6 59.9 38.7 59.1 ZM 36.8 61.8 C 36.6 61.9 36.8 62.2 36.9 62.1 C 37.1 62 36.9 61.7 36.8 61.8 ZM 36.6 63.6 C 36.9 63.9 37.1 64.3 37.3 64.6 L 37.9 64.8 C 37.8 64.1 37.6 63.4 37.4 62.6 C 37.1 62.9 36.9 63.2 36.6 63.6 ZM 35.3 62.6 C 35.3 62.9 35.3 63.2 35.4 63.4 L 35.6 62.9 L 35.3 62.6 ZM 34.3 63.2 C 34.2 63.1 34 63.3 34.1 63.4 C 34.2 63.6 34.6 63.3 34.3 63.2 ZM 34.2 63.8 C 34 63.9 34.1 64.2 34.3 64.2 C 34.5 64.1 34.4 63.8 34.2 63.8 ZM 38.9 66.4 C 39 66.7 39.2 67.1 39.3 67.5 C 39.7 67.3 40 67.1 40.4 66.9 C 39.9 66.7 39.4 66.6 38.9 66.4 ZM 37.1 65.6 C 37.1 67.6 37.2 69.6 37.7 71.5 C 38 70.7 37.9 69.8 38 69 C 38.2 68.3 38.7 67.9 39.1 67.5 C 38.9 67 38.8 66.6 38.6 66.2 C 38.4 66.2 38.2 66.2 38 66.2 C 37.7 66 37.4 65.8 37.1 65.6 ZM 34.4 64.5 C 34.2 64.5 34.2 64.9 34.5 64.8 C 34.7 64.8 34.6 64.4 34.4 64.5 ZM 35.9 65.8 C 35.1 66.6 35.3 67.8 35.2 68.8 L 34.9 68.6 C 34.9 67.6 34.8 66.6 34.6 65.6 C 34.2 66.9 34.5 68.2 34.5 69.5 C 34.5 70.9 34.7 72.3 35.2 73.6 C 35.3 72.4 35.1 71.1 35.2 69.9 C 35.6 70.6 35.7 71.5 36.2 72.2 C 36.3 71.5 36.2 70.7 36.3 70 C 36.5 70.2 36.6 70.4 36.8 70.6 C 37 69.1 36.6 67.6 36.6 66.1 C 36.4 66 36.1 65.9 35.9 65.8 ZM 37.9 71.9 C 37.6 72 37.7 72.3 37.9 72.3 C 38.1 72.2 38.1 71.9 37.9 71.9 ZM 36.3 73.3 C 36.1 73.9 36.3 74.6 36.6 75.1 C 36.6 74.5 36.6 73.9 36.3 73.3 ZM 19.5 47.7 C 21 48.6 22.5 49.6 23.9 50.7 C 24.6 51.3 25.5 51.8 25.9 52.7 C 24.1 52.7 23.3 50.9 21.8 50.2 C 20.9 49.5 19.8 48.9 19.5 47.7 ZM 13.3 45 C 13.9 46.8 14.8 48.5 15.3 50.3 C 15.6 51 16.3 51.5 16.8 52.1 C 17.5 53.1 18.6 53.5 19.6 54.2 C 19.4 54.4 19.3 54.9 18.9 54.8 C 18.2 54.8 17.4 54.4 16.6 54.6 C 16.7 54.2 16.9 53.7 16.8 53.2 C 16.7 53 16.4 52.8 16.3 52.6 C 16.4 53.3 16.3 54 16.4 54.7 C 16.5 56 17.6 56.9 18.5 57.8 C 16.7 58.5 14.7 58.6 12.8 59 C 12.5 57.4 12 55.9 11.5 54.4 C 11.4 53.7 11.1 52.9 11.2 52.2 C 11.5 50.5 11.4 48.8 11.8 47.1 C 12.2 46.7 12.6 46.4 12.7 45.8 C 13 45.6 13.2 45.4 13.3 45 ZM 18.6 48.6 C 18.9 48.4 19.3 48.4 19.6 48.4 C 19.3 48.5 18.9 48.6 18.6 48.6 ZM 28.3 61.3 C 29.4 61.4 30.4 60.7 31.5 60.6 L 31.5 61.3 L 32 61.4 C 31.5 61.8 31.2 62.3 30.8 62.8 C 29.9 63.7 28.7 64.3 27.4 64.4 C 26.2 64.4 25.7 63.2 25.1 62.3 C 26 61.6 27.2 61.5 28.3 61.3 ZM 26.1 62 C 25.9 62 25.7 62.1 25.7 62.3 C 25.8 62.5 26.3 62.2 26.1 62 ZM 21 56.7 C 21.4 56.6 21.9 56.7 22.4 56.7 C 22 56.9 21.5 57 21.1 57.1 L 21 56.7 ZM 20.7 56.8 C 20.7 56.6 20.8 56.6 21 56.7 C 21 56.9 20.9 57 20.7 56.8 ZM 22.8 62.6 C 23.2 62.6 23.5 62.5 23.9 62.4 C 23.6 62.6 23.3 62.8 23 63 L 22.8 62.6 ZM 27.9 78.1 C 28.1 78 28.3 78.3 28.1 78.4 C 27.9 78.5 27.8 78.2 27.9 78.1 ZM 34.8 85.2 C 36 85.2 37.2 85.3 38.4 85.3 L 36.8 88.7 C 36.1 87.6 35.5 86.4 34.8 85.2 Z" class="style1"/></g></g></svg>